<svg width="715pt" height="691pt" viewBox="0.00 0.00 715.00 691.29" xmlns="http://www.w3.org/2000/svg" xmlns:xlink="http://www.w3.org/1999/xlink">
<g id="graph0" class="graph" transform="scale(1 1) rotate(0) translate(4 687.29)">
<polygon fill="white" stroke="none" points="-4,4 -4,-687.29 711,-687.29 711,4 -4,4"/>
<g id="clust1" class="cluster">
<title>cluster_s1</title>
<polygon fill="#e2c6fc" stroke="black" stroke-dasharray="5,2" points="8,-562.09 8,-626.89 380,-626.89 380,-562.09 8,-562.09"/>
</g>
<g id="clust2" class="cluster">
<title>cluster_s8</title>
<path fill="none" stroke="black" stroke-width="5" d="M239,-8C239,-8 447,-8 447,-8 453,-8 459,-14 459,-20 459,-20 459,-240.8 459,-240.8 459,-246.8 453,-252.8 447,-252.8 447,-252.8 239,-252.8 239,-252.8 233,-252.8 227,-246.8 227,-240.8 227,-240.8 227,-20 227,-20 227,-14 233,-8 239,-8"/>
<text text-anchor="middle" x="343" y="-236.2" font-family="Times,serif" font-size="14.00">dropped-printer</text>
</g>
<g id="clust3" class="cluster">
<title>cluster_s11</title>
<path fill="none" stroke="black" stroke-width="5" d="M479,-8C479,-8 687,-8 687,-8 693,-8 699,-14 699,-20 699,-20 699,-240.8 699,-240.8 699,-246.8 693,-252.8 687,-252.8 687,-252.8 479,-252.8 479,-252.8 473,-252.8 467,-246.8 467,-240.8 467,-240.8 467,-20 467,-20 467,-14 473,-8 479,-8"/>
<text text-anchor="middle" x="583" y="-236.2" font-family="Times,serif" font-size="14.00">passed-printer</text>
</g>
<g id="clust4" class="cluster">
<title>cluster_s3</title>
<path fill="none" stroke="black" stroke-width="5" d="M404,-314.8C404,-314.8 590,-314.8 590,-314.8 596,-314.8 602,-320.8 602,-326.8 602,-326.8 602,-663.29 602,-663.29 602,-669.29 596,-675.29 590,-675.29 590,-675.29 404,-675.29 404,-675.29 398,-675.29 392,-669.29 392,-663.29 392,-663.29 392,-326.8 392,-326.8 392,-320.8 398,-314.8 404,-314.8"/>
<text text-anchor="middle" x="497" y="-658.69" font-family="Times,serif" font-size="14.00">pop-filter</text>
</g>
<!-- n2 -->
<g id="node1" class="node">
<title>n2</title>
<text text-anchor="start" x="35.78" y="-590.29" font-family="Courier New" font-size="14.00">Description:</text>
<text text-anchor="start" x="150.59" y="-590.29" font-family="Courier New" font-size="14.00">A mesh with 3 components</text>
</g>
<!-- n10 -->
<g id="node2" class="node">
<title>n10</title>
<ellipse fill="lightgrey" stroke="black" stroke-width="2.5" cx="343" cy="-172" rx="36" ry="36"/>
<text text-anchor="middle" x="343" y="-167.8" font-family="Courier New" font-size="14.00">in</text>
</g>
<!-- n9 -->
<g id="node3" class="node">
<title>n9</title>
<polygon fill="#9dddea" stroke="#9dddea" stroke-width="2.5" points="439.21,-100 246.79,-100 246.79,-28 439.21,-28 439.21,-100"/>
<text text-anchor="middle" x="343" y="-59.8" font-family="Courier New" font-size="14.00">Simple stdout printer</text>
</g>
<!-- n10&#45;&gt;n9 -->
<g id="edge1" class="edge">
<title>n10-&gt;n9</title>
<path fill="none" stroke="black" d="M343,-135.13C343,-135.13 343,-112.21 343,-112.21"/>
<polygon fill="black" stroke="black" points="346.5,-112.21 343,-102.21 339.5,-112.21 346.5,-112.21"/>
</g>
<!-- n13 -->
<g id="node4" class="node">
<title>n13</title>
<ellipse fill="lightgrey" stroke="black" stroke-width="2.5" cx="583" cy="-172" rx="36" ry="36"/>
<text text-anchor="middle" x="583" y="-167.8" font-family="Courier New" font-size="14.00">in</text>
</g>
<!-- n12 -->
<g id="node5" class="node">
<title>n12</title>
<polygon fill="#9dddea" stroke="#9dddea" stroke-width="2.5" points="679.21,-100 486.79,-100 486.79,-28 679.21,-28 679.21,-100"/>
<text text-anchor="middle" x="583" y="-59.8" font-family="Courier New" font-size="14.00">Simple stdout printer</text>
</g>
<!-- n13&#45;&gt;n12 -->
<g id="edge2" class="edge">
<title>n13-&gt;n12</title>
<path fill="none" stroke="black" d="M583,-135.13C583,-135.13 583,-112.21 583,-112.21"/>
<polygon fill="black" stroke="black" points="586.5,-112.21 583,-102.21 579.5,-112.21 586.5,-112.21"/>
</g>
<!-- n5 -->
<g id="node6" class="node">
<title>n5</title>
<ellipse fill="lightgrey" stroke="black" stroke-width="2.5" cx="497" cy="-594.49" rx="36" ry="36"/>
<text text-anchor="middle" x="497" y="-590.29" font-family="Courier New" font-size="14.00">in</text>
</g>
<!-- n4 -->
<g id="node9" class="node">
<title>n4</title>
<polygon fill="#9dddea" stroke="#9dddea" stroke-width="2.5" points="559.61,-522.49 434.39,-522.49 434.39,-450.49 559.61,-450.49 559.61,-522.49"/>
<text text-anchor="middle" x="497" y="-482.29" font-family="Courier New" font-size="14.00">Simple filter</text>
</g>
<!-- n5&#45;&gt;n4 -->
<g id="edge3" class="edge">
<title>n5-&gt;n4</title>
<path fill="none" stroke="black" d="M497,-557.62C497,-557.62 497,-534.7 497,-534.7"/>
<polygon fill="black" stroke="black" points="500.5,-534.7 497,-524.7 493.5,-534.7 500.5,-534.7"/>
</g>
<!-- n6 -->
<g id="node7" class="node">
<title>n6</title>
<ellipse fill="lightgrey" stroke="black" stroke-width="2.5" cx="452" cy="-374.64" rx="39.84" ry="39.84"/>
<text text-anchor="middle" x="452" y="-370.44" font-family="Courier New" font-size="14.00">dropped</text>
</g>
<!-- n6&#45;&gt;n10 -->
<g id="edge6" class="edge">
<title>n6-&gt;n10</title>
<path fill="none" stroke="#e437ea" stroke-width="2" d="M425.69,-343.42C425.69,-286.58 425.69,-172 425.69,-172 425.69,-172 393.02,-172 393.02,-172"/>
<polygon fill="#e437ea" stroke="#e437ea" stroke-width="2" points="393.02,-168.5 383.02,-172 393.02,-175.5 393.02,-168.5"/>
</g>
<!-- n7 -->
<g id="node8" class="node">
<title>n7</title>
<ellipse fill="lightgrey" stroke="black" stroke-width="2.5" cx="546" cy="-374.64" rx="36" ry="36"/>
<text text-anchor="middle" x="546" y="-370.44" font-family="Courier New" font-size="14.00">passed</text>
</g>
<!-- n7&#45;&gt;n13 -->
<g id="edge7" class="edge">
<title>n7-&gt;n13</title>
<path fill="none" stroke="#e437ea" stroke-width="2" d="M564.5,-342.98C564.5,-342.98 564.5,-216.8 564.5,-216.8"/>
<polygon fill="#e437ea" stroke="#e437ea" stroke-width="2" points="568,-216.8 564.5,-206.8 561,-216.8 568,-216.8"/>
</g>
<!-- n4&#45;&gt;n6 -->
<g id="edge4" class="edge">
<title>n4-&gt;n6</title>
<path fill="none" stroke="black" d="M463.12,-449.55C463.12,-449.55 463.12,-425.35 463.12,-425.35"/>
<polygon fill="black" stroke="black" points="466.62,-425.35 463.12,-415.35 459.62,-425.35 466.62,-425.35"/>
</g>
<!-- n4&#45;&gt;n7 -->
<g id="edge5" class="edge">
<title>n4-&gt;n7</title>
<path fill="none" stroke="black" d="M534.8,-449.55C534.8,-449.55 534.8,-421.15 534.8,-421.15"/>
<polygon fill="black" stroke="black" points="538.3,-421.15 534.8,-411.15 531.3,-421.15 538.3,-421.15"/>
</g>
</g>
</svg>