<svg width="834pt" height="1055pt" viewBox="0.00 0.00 834.00 1055.02" xmlns="http://www.w3.org/2000/svg" xmlns:xlink="http://www.w3.org/1999/xlink">
<g id="graph0" class="graph" transform="scale(1 1) rotate(0) translate(4 1051.02)">
<polygon fill="white" stroke="none" points="-4,4 -4,-1051.02 830,-1051.02 830,4 -4,4"/>
<g id="clust1" class="cluster">
<title>cluster_s1</title>
<polygon fill="#e2c6fc" stroke="black" stroke-dasharray="5,2" points="8,-899.6 8,-964.4 398,-964.4 398,-899.6 8,-899.6"/>
</g>
<g id="clust2" class="cluster">
<title>cluster_s9</title>
<path fill="none" stroke="black" stroke-width="5" d="M422,-581.36C422,-581.36 806,-581.36 806,-581.36 812,-581.36 818,-587.36 818,-593.36 818,-593.36 818,-1027.02 818,-1027.02 818,-1033.02 812,-1039.02 806,-1039.02 806,-1039.02 422,-1039.02 422,-1039.02 416,-1039.02 410,-1033.02 410,-1027.02 410,-1027.02 410,-593.36 410,-593.36 410,-587.36 416,-581.36 422,-581.36"/>
<text text-anchor="middle" x="614" y="-1022.42" font-family="Times,serif" font-size="14.00">battery</text>
</g>
<g id="clust3" class="cluster">
<title>cluster_s3</title>
<path fill="none" stroke="black" stroke-width="5" d="M470,-8C470,-8 806,-8 806,-8 812,-8 818,-14 818,-20 818,-20 818,-507.36 818,-507.36 818,-513.36 812,-519.36 806,-519.36 806,-519.36 470,-519.36 470,-519.36 464,-519.36 458,-513.36 458,-507.36 458,-507.36 458,-20 458,-20 458,-14 464,-8 470,-8"/>
<text text-anchor="middle" x="638" y="-502.76" font-family="Times,serif" font-size="14.00">lightbulb</text>
</g>
<!-- n2 -->
<g id="node1" class="node">
<title>n2</title>
<text text-anchor="start" x="36.37" y="-927.8" font-family="Courier New" font-size="14.00">Description:</text>
<text text-anchor="start" x="151.19" y="-927.8" font-family="Courier New" font-size="14.00">simple electric simulation</text>
</g>
<!-- n11 -->
<g id="node2" class="node">
<title>n11</title>
<ellipse fill="lightgrey" stroke="black" stroke-width="2.5" cx="614" cy="-932" rx="62.22" ry="62.22"/>
<text text-anchor="middle" x="614" y="-927.8" font-family="Courier New" font-size="14.00">power_demand</text>
</g>
<!-- n10 -->
<g id="node4" class="node">
<title>n10</title>
<polygon fill="#9dddea" stroke="#9dddea" stroke-width="2.5" points="798.43,-833.79 429.57,-833.79 429.57,-761.79 798.43,-761.79 798.43,-833.79"/>
<text text-anchor="middle" x="614" y="-793.59" font-family="Courier New" font-size="14.00">electric battery with initial charge level</text>
</g>
<!-- n11&#45;&gt;n10 -->
<g id="edge1" class="edge">
<title>n11-&gt;n10</title>
<path fill="none" stroke="black" d="M614,-868.82C614,-868.82 614,-846.2 614,-846.2"/>
<polygon fill="black" stroke="black" points="617.5,-846.2 614,-836.2 610.5,-846.2 617.5,-846.2"/>
</g>
<!-- n12 -->
<g id="node3" class="node">
<title>n12</title>
<ellipse fill="lightgrey" stroke="black" stroke-width="2.5" cx="614" cy="-663.57" rx="62.22" ry="62.22"/>
<text text-anchor="middle" x="614" y="-659.37" font-family="Courier New" font-size="14.00">power_supply</text>
</g>
<!-- n5 -->
<g id="node5" class="node">
<title>n5</title>
<ellipse fill="lightgrey" stroke="black" stroke-width="2.5" cx="540" cy="-385.49" rx="62.22" ry="62.22"/>
<text text-anchor="middle" x="540" y="-381.29" font-family="Courier New" font-size="14.00">power_supply</text>
</g>
<!-- n12&#45;&gt;n5 -->
<g id="edge7" class="edge">
<title>n12-&gt;n5</title>
<path fill="none" stroke="#e437ea" stroke-width="2" d="M577,-612.57C577,-612.57 577,-449.67 577,-449.67"/>
<polygon fill="#e437ea" stroke="#e437ea" stroke-width="2" points="580.5,-449.67 577,-439.67 573.5,-449.67 580.5,-449.67"/>
</g>
<!-- n10&#45;&gt;n12 -->
<g id="edge2" class="edge">
<title>n10-&gt;n12</title>
<path fill="none" stroke="black" d="M614,-761.11C614,-761.11 614,-738.3 614,-738.3"/>
<polygon fill="black" stroke="black" points="617.5,-738.3 614,-728.3 610.5,-738.3 617.5,-738.3"/>
</g>
<!-- n4 -->
<g id="node9" class="node">
<title>n4</title>
<polygon fill="#9dddea" stroke="#9dddea" stroke-width="2.5" points="735.61,-260.43 568.39,-260.43 568.39,-188.43 735.61,-188.43 735.61,-260.43"/>
<text text-anchor="middle" x="652" y="-220.23" font-family="Courier New" font-size="14.00">electric lightbulb</text>
</g>
<!-- n5&#45;&gt;n4 -->
<g id="edge3" class="edge">
<title>n5-&gt;n4</title>
<path fill="none" stroke="black" d="M585.3,-341.48C585.3,-341.48 585.3,-272.82 585.3,-272.82"/>
<polygon fill="black" stroke="black" points="588.8,-272.82 585.3,-262.82 581.8,-272.82 588.8,-272.82"/>
</g>
<!-- n6 -->
<g id="node6" class="node">
<title>n6</title>
<ellipse fill="lightgrey" stroke="black" stroke-width="2.5" cx="709" cy="-385.49" rx="89.06" ry="89.06"/>
<text text-anchor="middle" x="709" y="-381.29" font-family="Courier New" font-size="14.00">start_power_demand</text>
</g>
<!-- n6&#45;&gt;n4 -->
<g id="edge4" class="edge">
<title>n6-&gt;n4</title>
<path fill="none" stroke="black" d="M677.77,-301.19C677.77,-301.19 677.77,-272.84 677.77,-272.84"/>
<polygon fill="black" stroke="black" points="681.28,-272.84 677.78,-262.84 674.28,-272.84 681.28,-272.84"/>
</g>
<!-- n7 -->
<g id="node7" class="node">
<title>n7</title>
<ellipse fill="lightgrey" stroke="black" stroke-width="2.5" cx="594" cy="-90.22" rx="62.22" ry="62.22"/>
<text text-anchor="middle" x="594" y="-86.02" font-family="Courier New" font-size="14.00">light_supply</text>
</g>
<!-- n8 -->
<g id="node8" class="node">
<title>n8</title>
<ellipse fill="lightgrey" stroke="black" stroke-width="2.5" cx="736" cy="-90.22" rx="62.22" ry="62.22"/>
<text text-anchor="middle" x="736" y="-86.02" font-family="Courier New" font-size="14.00">power_demand</text>
</g>
<!-- n8&#45;&gt;n11 -->
<g id="edge8" class="edge">
<title>n8-&gt;n11</title>
<path fill="none" stroke="#e437ea" stroke-width="2" d="M798.98,-90.22C809.15,-90.22 816.43,-90.22 816.43,-90.22 816.43,-90.22 816.43,-932 816.43,-932 816.43,-932 689.97,-932 689.97,-932"/>
<polygon fill="#e437ea" stroke="#e437ea" stroke-width="2" points="689.97,-928.5 679.97,-932 689.97,-935.5 689.97,-928.5"/>
</g>
<!-- n4&#45;&gt;n7 -->
<g id="edge5" class="edge">
<title>n4-&gt;n7</title>
<path fill="none" stroke="black" d="M612.3,-187.76C612.3,-187.76 612.3,-162.11 612.3,-162.11"/>
<polygon fill="black" stroke="black" points="615.8,-162.11 612.3,-152.11 608.8,-162.11 615.8,-162.11"/>
</g>
<!-- n4&#45;&gt;n8 -->
<g id="edge6" class="edge">
<title>n4-&gt;n8</title>
<path fill="none" stroke="black" d="M704.7,-187.76C704.7,-187.76 704.7,-156.49 704.7,-156.49"/>
<polygon fill="black" stroke="black" points="708.2,-156.49 704.7,-146.49 701.2,-156.49 708.2,-156.49"/>
</g>
</g>
</svg>