<svg width="1018pt" height="861pt" viewBox="0.00 0.00 1018.00 860.67" xmlns="http://www.w3.org/2000/svg" xmlns:xlink="http://www.w3.org/1999/xlink">
<g id="graph0" class="graph" transform="scale(1 1) rotate(0) translate(4 856.67)">
<polygon fill="white" stroke="none" points="-4,4 -4,-856.67 1014,-856.67 1014,4 -4,4"/>
<g id="clust1" class="cluster">
<title>cluster_s1</title>
<polygon fill="#e2c6fc" stroke="black" stroke-dasharray="5,2" points="8,-731.47 8,-796.27 380,-796.27 380,-731.47 8,-731.47"/>
</g>
<g id="clust2" class="cluster">
<title>cluster_s13</title>
<path fill="none" stroke="black" stroke-width="5" d="M404,-491.87C404,-491.87 492,-491.87 492,-491.87 498,-491.87 504,-497.87 504,-503.87 504,-503.87 504,-832.67 504,-832.67 504,-838.67 498,-844.67 492,-844.67 492,-844.67 404,-844.67 404,-844.67 398,-844.67 392,-838.67 392,-832.67 392,-832.67 392,-503.87 392,-503.87 392,-497.87 398,-491.87 404,-491.87"/>
<text text-anchor="middle" x="448" y="-828.07" font-family="Times,serif" font-size="14.00">api-backend-0</text>
</g>
<g id="clust3" class="cluster">
<title>cluster_s17</title>
<path fill="none" stroke="black" stroke-width="5" d="M554,-491.87C554,-491.87 642,-491.87 642,-491.87 648,-491.87 654,-497.87 654,-503.87 654,-503.87 654,-832.67 654,-832.67 654,-838.67 648,-844.67 642,-844.67 642,-844.67 554,-844.67 554,-844.67 548,-844.67 542,-838.67 542,-832.67 542,-832.67 542,-503.87 542,-503.87 542,-497.87 548,-491.87 554,-491.87"/>
<text text-anchor="middle" x="598" y="-828.07" font-family="Times,serif" font-size="14.00">api-backend-1</text>
</g>
<g id="clust4" class="cluster">
<title>cluster_s21</title>
<path fill="none" stroke="black" stroke-width="5" d="M898,-491.87C898,-491.87 986,-491.87 986,-491.87 992,-491.87 998,-497.87 998,-503.87 998,-503.87 998,-832.67 998,-832.67 998,-838.67 992,-844.67 986,-844.67 986,-844.67 898,-844.67 898,-844.67 892,-844.67 886,-838.67 886,-832.67 886,-832.67 886,-503.87 886,-503.87 886,-497.87 892,-491.87 898,-491.87"/>
<text text-anchor="middle" x="942" y="-828.07" font-family="Times,serif" font-size="14.00">api-backend-2</text>
</g>
<g id="clust5" class="cluster">
<title>cluster_s3</title>
<path fill="none" stroke="black" stroke-width="5" d="M501,-8C501,-8 990,-8 990,-8 996,-8 1002,-14 1002,-20 1002,-20 1002,-417.87 1002,-417.87 1002,-423.87 996,-429.87 990,-429.87 990,-429.87 501,-429.87 501,-429.87 495,-429.87 489,-423.87 489,-417.87 489,-417.87 489,-20 489,-20 489,-14 495,-8 501,-8"/>
<text text-anchor="middle" x="745.5" y="-413.27" font-family="Times,serif" font-size="14.00">lb</text>
</g>
<!-- n2 -->
<g id="node1" class="node">
<title>n2</title>
<text text-anchor="start" x="35.78" y="-759.67" font-family="Courier New" font-size="14.00">Description:</text>
<text text-anchor="start" x="150.59" y="-759.67" font-family="Courier New" font-size="14.00">A mesh with 4 components</text>
</g>
<!-- n15 -->
<g id="node2" class="node">
<title>n15</title>
<ellipse fill="lightgrey" stroke="black" stroke-width="2.5" cx="448" cy="-763.87" rx="36" ry="36"/>
<text text-anchor="middle" x="448" y="-759.67" font-family="Courier New" font-size="14.00">in</text>
</g>
<!-- n14 -->
<g id="node4" class="node">
<title>n14</title>
<polygon fill="#9dddea" stroke="#9dddea" stroke-width="2.5" points="484,-691.87 412,-691.87 412,-619.87 484,-619.87 484,-691.87"/>
<text text-anchor="middle" x="448" y="-651.67" font-family="Courier New" font-size="14.00">ğ‘“</text>
</g>
<!-- n15&#45;&gt;n14 -->
<g id="edge1" class="edge">
<title>n15-&gt;n14</title>
<path fill="none" stroke="black" d="M448,-727C448,-727 448,-704.08 448,-704.08"/>
<polygon fill="black" stroke="black" points="451.5,-704.08 448,-694.08 444.5,-704.08 451.5,-704.08"/>
</g>
<!-- n16 -->
<g id="node3" class="node">
<title>n16</title>
<ellipse fill="lightgrey" stroke="black" stroke-width="2.5" cx="448" cy="-547.87" rx="36" ry="36"/>
<text text-anchor="middle" x="448" y="-543.67" font-family="Courier New" font-size="14.00">out</text>
</g>
<!-- n6 -->
<g id="node12" class="node">
<title>n6</title>
<ellipse fill="lightgrey" stroke="black" stroke-width="2.5" cx="701" cy="-336.27" rx="48.79" ry="48.79"/>
<text text-anchor="middle" x="701" y="-332.07" font-family="Courier New" font-size="14.00">upstream0</text>
</g>
<!-- n16&#45;&gt;n6 -->
<g id="edge15" class="edge">
<title>n16-&gt;n6</title>
<path fill="none" stroke="#e437ea" stroke-width="2" d="M448,-511.15C448,-461.39 448,-378.67 448,-378.67 448,-378.67 662.32,-378.67 662.32,-378.67"/>
<polygon fill="#e437ea" stroke="#e437ea" stroke-width="2" points="662.32,-382.17 672.32,-378.67 662.32,-375.17 662.32,-382.17"/>
</g>
<!-- n14&#45;&gt;n16 -->
<g id="edge2" class="edge">
<title>n14-&gt;n16</title>
<path fill="none" stroke="black" d="M448,-619C448,-619 448,-596.08 448,-596.08"/>
<polygon fill="black" stroke="black" points="451.5,-596.08 448,-586.08 444.5,-596.08 451.5,-596.08"/>
</g>
<!-- n19 -->
<g id="node5" class="node">
<title>n19</title>
<ellipse fill="lightgrey" stroke="black" stroke-width="2.5" cx="598" cy="-763.87" rx="36" ry="36"/>
<text text-anchor="middle" x="598" y="-759.67" font-family="Courier New" font-size="14.00">in</text>
</g>
<!-- n18 -->
<g id="node7" class="node">
<title>n18</title>
<polygon fill="#9dddea" stroke="#9dddea" stroke-width="2.5" points="634,-691.87 562,-691.87 562,-619.87 634,-619.87 634,-691.87"/>
<text text-anchor="middle" x="598" y="-651.67" font-family="Courier New" font-size="14.00">ğ‘“</text>
</g>
<!-- n19&#45;&gt;n18 -->
<g id="edge3" class="edge">
<title>n19-&gt;n18</title>
<path fill="none" stroke="black" d="M598,-727C598,-727 598,-704.08 598,-704.08"/>
<polygon fill="black" stroke="black" points="601.5,-704.08 598,-694.08 594.5,-704.08 601.5,-704.08"/>
</g>
<!-- n20 -->
<g id="node6" class="node">
<title>n20</title>
<ellipse fill="lightgrey" stroke="black" stroke-width="2.5" cx="598" cy="-547.87" rx="36" ry="36"/>
<text text-anchor="middle" x="598" y="-543.67" font-family="Courier New" font-size="14.00">out</text>
</g>
<!-- n7 -->
<g id="node13" class="node">
<title>n7</title>
<ellipse fill="lightgrey" stroke="black" stroke-width="2.5" cx="817" cy="-336.27" rx="48.79" ry="48.79"/>
<text text-anchor="middle" x="817" y="-332.07" font-family="Courier New" font-size="14.00">upstream1</text>
</g>
<!-- n20&#45;&gt;n7 -->
<g id="edge16" class="edge">
<title>n20-&gt;n7</title>
<path fill="none" stroke="#e437ea" stroke-width="2" d="M634.66,-547.87C697,-547.87 817,-547.87 817,-547.87 817,-547.87 817,-398.91 817,-398.91"/>
<polygon fill="#e437ea" stroke="#e437ea" stroke-width="2" points="820.5,-398.91 817,-388.91 813.5,-398.91 820.5,-398.91"/>
</g>
<!-- n18&#45;&gt;n20 -->
<g id="edge4" class="edge">
<title>n18-&gt;n20</title>
<path fill="none" stroke="black" d="M598,-619C598,-619 598,-596.08 598,-596.08"/>
<polygon fill="black" stroke="black" points="601.5,-596.08 598,-586.08 594.5,-596.08 601.5,-596.08"/>
</g>
<!-- n23 -->
<g id="node8" class="node">
<title>n23</title>
<ellipse fill="lightgrey" stroke="black" stroke-width="2.5" cx="942" cy="-763.87" rx="36" ry="36"/>
<text text-anchor="middle" x="942" y="-759.67" font-family="Courier New" font-size="14.00">in</text>
</g>
<!-- n22 -->
<g id="node10" class="node">
<title>n22</title>
<polygon fill="#9dddea" stroke="#9dddea" stroke-width="2.5" points="978,-691.87 906,-691.87 906,-619.87 978,-619.87 978,-691.87"/>
<text text-anchor="middle" x="942" y="-651.67" font-family="Courier New" font-size="14.00">ğ‘“</text>
</g>
<!-- n23&#45;&gt;n22 -->
<g id="edge5" class="edge">
<title>n23-&gt;n22</title>
<path fill="none" stroke="black" d="M942,-727C942,-727 942,-704.08 942,-704.08"/>
<polygon fill="black" stroke="black" points="945.5,-704.08 942,-694.08 938.5,-704.08 945.5,-704.08"/>
</g>
<!-- n24 -->
<g id="node9" class="node">
<title>n24</title>
<ellipse fill="lightgrey" stroke="black" stroke-width="2.5" cx="942" cy="-547.87" rx="36" ry="36"/>
<text text-anchor="middle" x="942" y="-543.67" font-family="Courier New" font-size="14.00">out</text>
</g>
<!-- n8 -->
<g id="node14" class="node">
<title>n8</title>
<ellipse fill="lightgrey" stroke="black" stroke-width="2.5" cx="933" cy="-336.27" rx="48.79" ry="48.79"/>
<text text-anchor="middle" x="933" y="-332.07" font-family="Courier New" font-size="14.00">upstream2</text>
</g>
<!-- n24&#45;&gt;n8 -->
<g id="edge17" class="edge">
<title>n24-&gt;n8</title>
<path fill="none" stroke="#e437ea" stroke-width="2" d="M942,-511.01C942,-511.01 942,-398.04 942,-398.04"/>
<polygon fill="#e437ea" stroke="#e437ea" stroke-width="2" points="945.5,-398.04 942,-388.04 938.5,-398.04 945.5,-398.04"/>
</g>
<!-- n22&#45;&gt;n24 -->
<g id="edge6" class="edge">
<title>n22-&gt;n24</title>
<path fill="none" stroke="black" d="M942,-619C942,-619 942,-596.08 942,-596.08"/>
<polygon fill="black" stroke="black" points="945.5,-596.08 942,-586.08 938.5,-596.08 945.5,-596.08"/>
</g>
<!-- n5 -->
<g id="node11" class="node">
<title>n5</title>
<ellipse fill="lightgrey" stroke="black" stroke-width="2.5" cx="598" cy="-336.27" rx="36" ry="36"/>
<text text-anchor="middle" x="598" y="-332.07" font-family="Courier New" font-size="14.00">in</text>
</g>
<!-- n4 -->
<g id="node19" class="node">
<title>n4</title>
<polygon fill="#9dddea" stroke="#9dddea" stroke-width="2.5" points="881.62,-251.48 630.38,-251.48 630.38,-179.48 881.62,-179.48 881.62,-251.48"/>
<text text-anchor="middle" x="756" y="-211.28" font-family="Courier New" font-size="14.00">Load balancer with 3 workers</text>
</g>
<!-- n5&#45;&gt;n4 -->
<g id="edge7" class="edge">
<title>n5-&gt;n4</title>
<path fill="none" stroke="black" d="M634.83,-336.27C639.73,-336.27 643.1,-336.27 643.1,-336.27 643.1,-336.27 643.1,-263.89 643.1,-263.89"/>
<polygon fill="black" stroke="black" points="646.6,-263.89 643.1,-253.89 639.6,-263.89 646.6,-263.89"/>
</g>
<!-- n6&#45;&gt;n4 -->
<g id="edge8" class="edge">
<title>n6-&gt;n4</title>
<path fill="none" stroke="black" d="M701,-286.79C701,-286.79 701,-263.64 701,-263.64"/>
<polygon fill="black" stroke="black" points="704.5,-263.64 701,-253.64 697.5,-263.64 704.5,-263.64"/>
</g>
<!-- n7&#45;&gt;n4 -->
<g id="edge9" class="edge">
<title>n7-&gt;n4</title>
<path fill="none" stroke="black" d="M817,-286.79C817,-286.79 817,-263.64 817,-263.64"/>
<polygon fill="black" stroke="black" points="820.5,-263.64 817,-253.64 813.5,-263.64 820.5,-263.64"/>
</g>
<!-- n8&#45;&gt;n4 -->
<g id="edge10" class="edge">
<title>n8-&gt;n4</title>
<path fill="none" stroke="black" d="M883.23,-336.27C877.53,-336.27 873.71,-336.27 873.71,-336.27 873.71,-336.27 873.71,-263.89 873.71,-263.89"/>
<polygon fill="black" stroke="black" points="877.21,-263.89 873.71,-253.89 870.21,-263.89 877.21,-263.89"/>
</g>
<!-- n9 -->
<g id="node15" class="node">
<title>n9</title>
<ellipse fill="lightgrey" stroke="black" stroke-width="2.5" cx="567" cy="-85.74" rx="57.74" ry="57.74"/>
<text text-anchor="middle" x="567" y="-81.54" font-family="Courier New" font-size="14.00">downstream0</text>
</g>
<!-- n9&#45;&gt;n15 -->
<g id="edge18" class="edge">
<title>n9-&gt;n15</title>
<path fill="none" stroke="#e437ea" stroke-width="2" d="M526.84,-128.39C526.84,-278.85 526.84,-775.87 526.84,-775.87 526.84,-775.87 495.84,-775.87 495.84,-775.87"/>
<polygon fill="#e437ea" stroke="#e437ea" stroke-width="2" points="495.84,-772.37 485.84,-775.87 495.84,-779.37 495.84,-772.37"/>
</g>
<!-- n10 -->
<g id="node16" class="node">
<title>n10</title>
<ellipse fill="lightgrey" stroke="black" stroke-width="2.5" cx="700" cy="-85.74" rx="57.74" ry="57.74"/>
<text text-anchor="middle" x="700" y="-81.54" font-family="Courier New" font-size="14.00">downstream1</text>
</g>
<!-- n10&#45;&gt;n19 -->
<g id="edge19" class="edge">
<title>n10-&gt;n19</title>
<path fill="none" stroke="#e437ea" stroke-width="2" d="M680.75,-141.18C680.75,-152.73 680.75,-161.48 680.75,-161.48 680.75,-161.48 544.42,-161.48 544.42,-161.48 544.42,-161.48 544.42,-751.87 544.42,-751.87 544.42,-751.87 550.13,-751.87 550.13,-751.87"/>
<polygon fill="#e437ea" stroke="#e437ea" stroke-width="2" points="550.13,-755.37 560.13,-751.87 550.13,-748.37 550.13,-755.37"/>
</g>
<!-- n11 -->
<g id="node17" class="node">
<title>n11</title>
<ellipse fill="lightgrey" stroke="black" stroke-width="2.5" cx="924" cy="-85.74" rx="57.74" ry="57.74"/>
<text text-anchor="middle" x="924" y="-81.54" font-family="Courier New" font-size="14.00">downstream2</text>
</g>
<!-- n11&#45;&gt;n23 -->
<g id="edge20" class="edge">
<title>n11-&gt;n23</title>
<path fill="none" stroke="#e437ea" stroke-width="2" d="M982.59,-85.74C992.57,-85.74 999.79,-85.74 999.79,-85.74 999.79,-85.74 999.79,-763.87 999.79,-763.87 999.79,-763.87 991.95,-763.87 991.95,-763.87"/>
<polygon fill="#e437ea" stroke="#e437ea" stroke-width="2" points="991.95,-760.37 981.95,-763.87 991.95,-767.37 991.95,-760.37"/>
</g>
<!-- n12 -->
<g id="node18" class="node">
<title>n12</title>
<ellipse fill="lightgrey" stroke="black" stroke-width="2.5" cx="812" cy="-85.74" rx="36" ry="36"/>
<text text-anchor="middle" x="812" y="-81.54" font-family="Courier New" font-size="14.00">out</text>
</g>
<!-- n4&#45;&gt;n9 -->
<g id="edge11" class="edge">
<title>n4-&gt;n9</title>
<path fill="none" stroke="black" d="M636.32,-178.65C636.32,-140.29 636.32,-85.74 636.32,-85.74 636.32,-85.74 635.24,-85.74 635.24,-85.74"/>
<polygon fill="black" stroke="black" points="637,-82.24 627,-85.74 637,-89.24 637,-82.24"/>
</g>
<!-- n4&#45;&gt;n10 -->
<g id="edge12" class="edge">
<title>n4-&gt;n10</title>
<path fill="none" stroke="black" d="M719.25,-178.65C719.25,-178.65 719.25,-152.59 719.25,-152.59"/>
<polygon fill="black" stroke="black" points="722.75,-152.59 719.25,-142.59 715.75,-152.59 722.75,-152.59"/>
</g>
<!-- n4&#45;&gt;n11 -->
<g id="edge13" class="edge">
<title>n4-&gt;n11</title>
<path fill="none" stroke="black" d="M873.94,-178.65C873.94,-178.65 873.94,-127.61 873.94,-127.61"/>
<polygon fill="black" stroke="black" points="877.44,-127.61 873.94,-117.61 870.44,-127.61 877.44,-127.61"/>
</g>
<!-- n4&#45;&gt;n12 -->
<g id="edge14" class="edge">
<title>n4-&gt;n12</title>
<path fill="none" stroke="black" d="M812,-178.65C812,-178.65 812,-134.18 812,-134.18"/>
<polygon fill="black" stroke="black" points="815.5,-134.18 812,-124.18 808.5,-134.18 815.5,-134.18"/>
</g>
</g>
</svg>