<svg width="610pt" height="792pt" viewBox="0.00 0.00 610.00 791.60" xmlns="http://www.w3.org/2000/svg" xmlns:xlink="http://www.w3.org/1999/xlink">
<g id="graph0" class="graph" transform="scale(1 1) rotate(0) translate(4 787.6)">
<polygon fill="white" stroke="none" points="-4,4 -4,-787.6 606,-787.6 606,4 -4,4"/>
<g id="clust1" class="cluster">
<title>cluster_s1</title>
<polygon fill="#e2c6fc" stroke="black" stroke-dasharray="5,2" points="8,-662.4 8,-727.2 380,-727.2 380,-662.4 8,-662.4"/>
</g>
<g id="clust2" class="cluster">
<title>cluster_s8</title>
<path fill="none" stroke="black" stroke-width="5" d="M449,-8C449,-8 537,-8 537,-8 543,-8 549,-14 549,-20 549,-20 549,-348.8 549,-348.8 549,-354.8 543,-360.8 537,-360.8 537,-360.8 449,-360.8 449,-360.8 443,-360.8 437,-354.8 437,-348.8 437,-348.8 437,-20 437,-20 437,-14 443,-8 449,-8"/>
<text text-anchor="middle" x="493" y="-344.2" font-family="Times,serif" font-size="14.00">case</text>
</g>
<g id="clust3" class="cluster">
<title>cluster_s3</title>
<path fill="none" stroke="black" stroke-width="5" d="M404,-422.8C404,-422.8 582,-422.8 582,-422.8 588,-422.8 594,-428.8 594,-434.8 594,-434.8 594,-763.6 594,-763.6 594,-769.6 588,-775.6 582,-775.6 582,-775.6 404,-775.6 404,-775.6 398,-775.6 392,-769.6 392,-763.6 392,-763.6 392,-434.8 392,-434.8 392,-428.8 398,-422.8 404,-422.8"/>
<text text-anchor="middle" x="493" y="-759" font-family="Times,serif" font-size="14.00">concat</text>
</g>
<!-- n2 -->
<g id="node1" class="node">
<title>n2</title>
<text text-anchor="start" x="35.78" y="-690.6" font-family="Courier New" font-size="14.00">Description:</text>
<text text-anchor="start" x="150.59" y="-690.6" font-family="Courier New" font-size="14.00">A mesh with 2 components</text>
</g>
<!-- n10 -->
<g id="node2" class="node">
<title>n10</title>
<ellipse fill="lightgrey" stroke="black" stroke-width="2.5" cx="493" cy="-280" rx="36" ry="36"/>
<text text-anchor="middle" x="493" y="-275.8" font-family="Courier New" font-size="14.00">i1</text>
</g>
<!-- n9 -->
<g id="node4" class="node">
<title>n9</title>
<polygon fill="#9dddea" stroke="#9dddea" stroke-width="2.5" points="529,-208 457,-208 457,-136 529,-136 529,-208"/>
<text text-anchor="middle" x="493" y="-167.8" font-family="Courier New" font-size="14.00">ğ‘“</text>
</g>
<!-- n10&#45;&gt;n9 -->
<g id="edge1" class="edge">
<title>n10-&gt;n9</title>
<path fill="none" stroke="black" d="M493,-243.13C493,-243.13 493,-220.21 493,-220.21"/>
<polygon fill="black" stroke="black" points="496.5,-220.21 493,-210.21 489.5,-220.21 496.5,-220.21"/>
</g>
<!-- n11 -->
<g id="node3" class="node">
<title>n11</title>
<ellipse fill="lightgrey" stroke="black" stroke-width="2.5" cx="493" cy="-64" rx="36" ry="36"/>
<text text-anchor="middle" x="493" y="-59.8" font-family="Courier New" font-size="14.00">res</text>
</g>
<!-- n9&#45;&gt;n11 -->
<g id="edge2" class="edge">
<title>n9-&gt;n11</title>
<path fill="none" stroke="black" d="M493,-135.13C493,-135.13 493,-112.21 493,-112.21"/>
<polygon fill="black" stroke="black" points="496.5,-112.21 493,-102.21 489.5,-112.21 496.5,-112.21"/>
</g>
<!-- n5 -->
<g id="node5" class="node">
<title>n5</title>
<ellipse fill="lightgrey" stroke="black" stroke-width="2.5" cx="448" cy="-694.8" rx="36" ry="36"/>
<text text-anchor="middle" x="448" y="-690.6" font-family="Courier New" font-size="14.00">i1</text>
</g>
<!-- n4 -->
<g id="node8" class="node">
<title>n4</title>
<polygon fill="#9dddea" stroke="#9dddea" stroke-width="2.5" points="529,-622.8 457,-622.8 457,-550.8 529,-550.8 529,-622.8"/>
<text text-anchor="middle" x="493" y="-582.6" font-family="Courier New" font-size="14.00">ğ‘“</text>
</g>
<!-- n5&#45;&gt;n4 -->
<g id="edge3" class="edge">
<title>n5-&gt;n4</title>
<path fill="none" stroke="black" d="M470.5,-665.57C470.5,-665.57 470.5,-635.3 470.5,-635.3"/>
<polygon fill="black" stroke="black" points="474,-635.3 470.5,-625.3 467,-635.3 474,-635.3"/>
</g>
<!-- n6 -->
<g id="node6" class="node">
<title>n6</title>
<ellipse fill="lightgrey" stroke="black" stroke-width="2.5" cx="538" cy="-694.8" rx="36" ry="36"/>
<text text-anchor="middle" x="538" y="-690.6" font-family="Courier New" font-size="14.00">i2</text>
</g>
<!-- n6&#45;&gt;n4 -->
<g id="edge4" class="edge">
<title>n6-&gt;n4</title>
<path fill="none" stroke="black" d="M515.5,-665.57C515.5,-665.57 515.5,-635.3 515.5,-635.3"/>
<polygon fill="black" stroke="black" points="519,-635.3 515.5,-625.3 512,-635.3 519,-635.3"/>
</g>
<!-- n7 -->
<g id="node7" class="node">
<title>n7</title>
<ellipse fill="lightgrey" stroke="black" stroke-width="2.5" cx="493" cy="-478.8" rx="36" ry="36"/>
<text text-anchor="middle" x="493" y="-474.6" font-family="Courier New" font-size="14.00">res</text>
</g>
<!-- n7&#45;&gt;n10 -->
<g id="edge6" class="edge">
<title>n7-&gt;n10</title>
<path fill="none" stroke="#e437ea" stroke-width="2" d="M493,-441.87C493,-441.87 493,-329.76 493,-329.76"/>
<polygon fill="#e437ea" stroke="#e437ea" stroke-width="2" points="496.5,-329.76 493,-319.76 489.5,-329.76 496.5,-329.76"/>
</g>
<!-- n4&#45;&gt;n7 -->
<g id="edge5" class="edge">
<title>n4-&gt;n7</title>
<path fill="none" stroke="black" d="M493,-549.93C493,-549.93 493,-527.01 493,-527.01"/>
<polygon fill="black" stroke="black" points="496.5,-527.01 493,-517.01 489.5,-527.01 496.5,-527.01"/>
</g>
</g>
</svg>