<svg width="1042pt" height="1206pt" viewBox="0.00 0.00 1042.00 1206.40" xmlns="http://www.w3.org/2000/svg" xmlns:xlink="http://www.w3.org/1999/xlink">
<g id="graph0" class="graph" transform="scale(1 1) rotate(0) translate(4 1202.4)">
<polygon fill="white" stroke="none" points="-4,4 -4,-1202.4 1038,-1202.4 1038,4 -4,4"/>
<g id="clust1" class="cluster">
<title>cluster_s1</title>
<polygon fill="#e2c6fc" stroke="black" stroke-dasharray="5,2" points="8,-1077.2 8,-1142 380,-1142 380,-1077.2 8,-1077.2"/>
</g>
<g id="clust2" class="cluster">
<title>cluster_s3</title>
<path fill="none" stroke="black" stroke-width="5" d="M562,-8C562,-8 1014,-8 1014,-8 1020,-8 1026,-14 1026,-20 1026,-20 1026,-348.8 1026,-348.8 1026,-354.8 1020,-360.8 1014,-360.8 1014,-360.8 562,-360.8 562,-360.8 556,-360.8 550,-354.8 550,-348.8 550,-348.8 550,-20 550,-20 550,-14 556,-8 562,-8"/>
<text text-anchor="middle" x="788" y="-344.2" font-family="Times,serif" font-size="14.00">factorizer</text>
</g>
<g id="clust3" class="cluster">
<title>cluster_s11</title>
<path fill="none" stroke="black" stroke-width="5" d="M417,-422.8C417,-422.8 877,-422.8 877,-422.8 883,-422.8 889,-428.8 889,-434.8 889,-434.8 889,-763.6 889,-763.6 889,-769.6 883,-775.6 877,-775.6 877,-775.6 417,-775.6 417,-775.6 411,-775.6 405,-769.6 405,-763.6 405,-763.6 405,-434.8 405,-434.8 405,-428.8 411,-422.8 417,-422.8"/>
<text text-anchor="middle" x="647" y="-759" font-family="Times,serif" font-size="14.00">filter</text>
</g>
<g id="clust4" class="cluster">
<title>cluster_s16</title>
<path fill="none" stroke="black" stroke-width="5" d="M388,-116C388,-116 530,-116 530,-116 536,-116 542,-122 542,-128 542,-128 542,-348.8 542,-348.8 542,-354.8 536,-360.8 530,-360.8 530,-360.8 388,-360.8 388,-360.8 382,-360.8 376,-354.8 376,-348.8 376,-348.8 376,-128 376,-128 376,-122 382,-116 388,-116"/>
<text text-anchor="middle" x="459" y="-344.2" font-family="Times,serif" font-size="14.00">logger</text>
</g>
<g id="clust5" class="cluster">
<title>cluster_s7</title>
<path fill="none" stroke="black" stroke-width="5" d="M404,-837.6C404,-837.6 890,-837.6 890,-837.6 896,-837.6 902,-843.6 902,-849.6 902,-849.6 902,-1178.4 902,-1178.4 902,-1184.4 896,-1190.4 890,-1190.4 890,-1190.4 404,-1190.4 404,-1190.4 398,-1190.4 392,-1184.4 392,-1178.4 392,-1178.4 392,-849.6 392,-849.6 392,-843.6 398,-837.6 404,-837.6"/>
<text text-anchor="middle" x="647" y="-1173.8" font-family="Times,serif" font-size="14.00">starter</text>
</g>
<!-- n2 -->
<g id="node1" class="node">
<title>n2</title>
<text text-anchor="start" x="35.78" y="-1105.4" font-family="Courier New" font-size="14.00">Description:</text>
<text text-anchor="start" x="150.59" y="-1105.4" font-family="Courier New" font-size="14.00">A mesh with 4 components</text>
</g>
<!-- n5 -->
<g id="node2" class="node">
<title>n5</title>
<ellipse fill="lightgrey" stroke="black" stroke-width="2.5" cx="788" cy="-280" rx="36" ry="36"/>
<text text-anchor="middle" x="788" y="-275.8" font-family="Courier New" font-size="14.00">in</text>
</g>
<!-- n4 -->
<g id="node4" class="node">
<title>n4</title>
<polygon fill="#9dddea" stroke="#9dddea" stroke-width="2.5" points="1006.03,-208 569.97,-208 569.97,-136 1006.03,-136 1006.03,-208"/>
<text text-anchor="middle" x="788" y="-167.8" font-family="Courier New" font-size="14.00">Prime factorization implemented as separate f-mesh</text>
</g>
<!-- n5&#45;&gt;n4 -->
<g id="edge1" class="edge">
<title>n5-&gt;n4</title>
<path fill="none" stroke="black" d="M788,-243.13C788,-243.13 788,-220.21 788,-220.21"/>
<polygon fill="black" stroke="black" points="791.5,-220.21 788,-210.21 784.5,-220.21 791.5,-220.21"/>
</g>
<!-- n6 -->
<g id="node3" class="node">
<title>n6</title>
<ellipse fill="lightgrey" stroke="black" stroke-width="2.5" cx="788" cy="-64" rx="36" ry="36"/>
<text text-anchor="middle" x="788" y="-59.8" font-family="Courier New" font-size="14.00">out</text>
</g>
<!-- n4&#45;&gt;n6 -->
<g id="edge2" class="edge">
<title>n4-&gt;n6</title>
<path fill="none" stroke="black" d="M788,-135.13C788,-135.13 788,-112.21 788,-112.21"/>
<polygon fill="black" stroke="black" points="791.5,-112.21 788,-102.21 784.5,-112.21 791.5,-112.21"/>
</g>
<!-- n13 -->
<g id="node5" class="node">
<title>n13</title>
<ellipse fill="lightgrey" stroke="black" stroke-width="2.5" cx="647" cy="-694.8" rx="36" ry="36"/>
<text text-anchor="middle" x="647" y="-690.6" font-family="Courier New" font-size="14.00">in</text>
</g>
<!-- n12 -->
<g id="node8" class="node">
<title>n12</title>
<polygon fill="#9dddea" stroke="#9dddea" stroke-width="2.5" points="869.23,-622.8 424.77,-622.8 424.77,-550.8 869.23,-550.8 869.23,-622.8"/>
<text text-anchor="middle" x="647" y="-582.6" font-family="Courier New" font-size="14.00">In this component we can do some optional filtering</text>
</g>
<!-- n13&#45;&gt;n12 -->
<g id="edge3" class="edge">
<title>n13-&gt;n12</title>
<path fill="none" stroke="black" d="M647,-657.93C647,-657.93 647,-635.01 647,-635.01"/>
<polygon fill="black" stroke="black" points="650.5,-635.01 647,-625.01 643.5,-635.01 650.5,-635.01"/>
</g>
<!-- n15 -->
<g id="node6" class="node">
<title>n15</title>
<ellipse fill="lightgrey" stroke="black" stroke-width="2.5" cx="602" cy="-478.8" rx="36" ry="36"/>
<text text-anchor="middle" x="602" y="-474.6" font-family="Courier New" font-size="14.00">log</text>
</g>
<!-- n18 -->
<g id="node9" class="node">
<title>n18</title>
<ellipse fill="lightgrey" stroke="black" stroke-width="2.5" cx="459" cy="-280" rx="36" ry="36"/>
<text text-anchor="middle" x="459" y="-275.8" font-family="Courier New" font-size="14.00">in</text>
</g>
<!-- n15&#45;&gt;n18 -->
<g id="edge9" class="edge">
<title>n15-&gt;n18</title>
<path fill="none" stroke="#e437ea" stroke-width="2" d="M565.03,-478.8C522.92,-478.8 459.88,-478.8 459.88,-478.8 459.88,-478.8 459.88,-329.95 459.88,-329.95"/>
<polygon fill="#e437ea" stroke="#e437ea" stroke-width="2" points="463.38,-329.95 459.88,-319.95 456.38,-329.95 463.38,-329.95"/>
</g>
<!-- n14 -->
<g id="node7" class="node">
<title>n14</title>
<ellipse fill="lightgrey" stroke="black" stroke-width="2.5" cx="692" cy="-478.8" rx="36" ry="36"/>
<text text-anchor="middle" x="692" y="-474.6" font-family="Courier New" font-size="14.00">out</text>
</g>
<!-- n14&#45;&gt;n5 -->
<g id="edge10" class="edge">
<title>n14-&gt;n5</title>
<path fill="none" stroke="#e437ea" stroke-width="2" d="M692,-441.87C692,-384.38 692,-280 692,-280 692,-280 738.13,-280 738.13,-280"/>
<polygon fill="#e437ea" stroke="#e437ea" stroke-width="2" points="738.13,-283.5 748.13,-280 738.13,-276.5 738.13,-283.5"/>
</g>
<!-- n12&#45;&gt;n15 -->
<g id="edge5" class="edge">
<title>n12-&gt;n15</title>
<path fill="none" stroke="black" d="M602,-549.93C602,-549.93 602,-527.01 602,-527.01"/>
<polygon fill="black" stroke="black" points="605.5,-527.01 602,-517.01 598.5,-527.01 605.5,-527.01"/>
</g>
<!-- n12&#45;&gt;n14 -->
<g id="edge4" class="edge">
<title>n12-&gt;n14</title>
<path fill="none" stroke="black" d="M692,-549.93C692,-549.93 692,-527.01 692,-527.01"/>
<polygon fill="black" stroke="black" points="695.5,-527.01 692,-517.01 688.5,-527.01 695.5,-527.01"/>
</g>
<!-- n17 -->
<g id="node10" class="node">
<title>n17</title>
<polygon fill="#9dddea" stroke="#9dddea" stroke-width="2.5" points="521.61,-208 396.39,-208 396.39,-136 521.61,-136 521.61,-208"/>
<text text-anchor="middle" x="459" y="-167.8" font-family="Courier New" font-size="14.00">Simple logger</text>
</g>
<!-- n18&#45;&gt;n17 -->
<g id="edge6" class="edge">
<title>n18-&gt;n17</title>
<path fill="none" stroke="black" d="M459,-243.13C459,-243.13 459,-220.21 459,-220.21"/>
<polygon fill="black" stroke="black" points="462.5,-220.21 459,-210.21 455.5,-220.21 462.5,-220.21"/>
</g>
<!-- n9 -->
<g id="node11" class="node">
<title>n9</title>
<ellipse fill="lightgrey" stroke="black" stroke-width="2.5" cx="647" cy="-1109.6" rx="36" ry="36"/>
<text text-anchor="middle" x="647" y="-1105.4" font-family="Courier New" font-size="14.00">in</text>
</g>
<!-- n8 -->
<g id="node13" class="node">
<title>n8</title>
<polygon fill="#9dddea" stroke="#9dddea" stroke-width="2.5" points="881.84,-1037.6 412.16,-1037.6 412.16,-965.6 881.84,-965.6 881.84,-1037.6"/>
<text text-anchor="middle" x="647" y="-997.4" font-family="Courier New" font-size="14.00">This component just holds numbers we want to factorize</text>
</g>
<!-- n9&#45;&gt;n8 -->
<g id="edge7" class="edge">
<title>n9-&gt;n8</title>
<path fill="none" stroke="black" d="M647,-1072.73C647,-1072.73 647,-1049.81 647,-1049.81"/>
<polygon fill="black" stroke="black" points="650.5,-1049.81 647,-1039.81 643.5,-1049.81 650.5,-1049.81"/>
</g>
<!-- n10 -->
<g id="node12" class="node">
<title>n10</title>
<ellipse fill="lightgrey" stroke="black" stroke-width="2.5" cx="647" cy="-893.6" rx="36" ry="36"/>
<text text-anchor="middle" x="647" y="-889.4" font-family="Courier New" font-size="14.00">out</text>
</g>
<!-- n10&#45;&gt;n13 -->
<g id="edge11" class="edge">
<title>n10-&gt;n13</title>
<path fill="none" stroke="#e437ea" stroke-width="2" d="M647,-856.67C647,-856.67 647,-744.56 647,-744.56"/>
<polygon fill="#e437ea" stroke="#e437ea" stroke-width="2" points="650.5,-744.56 647,-734.56 643.5,-744.56 650.5,-744.56"/>
</g>
<!-- n8&#45;&gt;n10 -->
<g id="edge8" class="edge">
<title>n8-&gt;n10</title>
<path fill="none" stroke="black" d="M647,-964.73C647,-964.73 647,-941.81 647,-941.81"/>
<polygon fill="black" stroke="black" points="650.5,-941.81 647,-931.81 643.5,-941.81 650.5,-941.81"/>
</g>
</g>
</svg>