<svg width="648pt" height="2866pt" viewBox="0.00 0.00 648.00 2865.60" xmlns="http://www.w3.org/2000/svg" xmlns:xlink="http://www.w3.org/1999/xlink">
<g id="graph0" class="graph" transform="scale(1 1) rotate(0) translate(4 2861.6)">
<polygon fill="white" stroke="none" points="-4,4 -4,-2861.6 644,-2861.6 644,4 -4,4"/>
<g id="clust1" class="cluster">
<title>cluster_s1</title>
<polygon fill="#e2c6fc" stroke="black" stroke-dasharray="5,2" points="8,-2736.4 8,-2801.2 380,-2801.2 380,-2736.4 8,-2736.4"/>
</g>
<g id="clust2" class="cluster">
<title>cluster_s3</title>
<path fill="none" stroke="black" stroke-width="5" d="M446,-422.8C446,-422.8 578,-422.8 578,-422.8 584,-422.8 590,-428.8 590,-434.8 590,-434.8 590,-763.6 590,-763.6 590,-769.6 584,-775.6 578,-775.6 578,-775.6 446,-775.6 446,-775.6 440,-775.6 434,-769.6 434,-763.6 434,-763.6 434,-434.8 434,-434.8 434,-428.8 440,-422.8 446,-422.8"/>
<text text-anchor="middle" x="512" y="-759" font-family="Times,serif" font-size="14.00">counter-tokens</text>
</g>
<g id="clust3" class="cluster">
<title>cluster_s15</title>
<path fill="none" stroke="black" stroke-width="5" d="M441,-2082C441,-2082 583,-2082 583,-2082 589,-2082 595,-2088 595,-2094 595,-2094 595,-2422.8 595,-2422.8 595,-2428.8 589,-2434.8 583,-2434.8 583,-2434.8 441,-2434.8 441,-2434.8 435,-2434.8 429,-2428.8 429,-2422.8 429,-2422.8 429,-2094 429,-2094 429,-2088 435,-2082 441,-2082"/>
<text text-anchor="middle" x="512" y="-2418.2" font-family="Times,serif" font-size="14.00">persist-input</text>
</g>
<g id="clust4" class="cluster">
<title>cluster_s7</title>
<path fill="none" stroke="black" stroke-width="5" d="M441,-8C441,-8 583,-8 583,-8 589,-8 595,-14 595,-20 595,-20 595,-348.8 595,-348.8 595,-354.8 589,-360.8 583,-360.8 583,-360.8 441,-360.8 441,-360.8 435,-360.8 429,-354.8 429,-348.8 429,-348.8 429,-20 429,-20 429,-14 435,-8 441,-8"/>
<text text-anchor="middle" x="512" y="-344.2" font-family="Times,serif" font-size="14.00">persist-results</text>
</g>
<g id="clust5" class="cluster">
<title>cluster_s19</title>
<path fill="none" stroke="black" stroke-width="5" d="M458,-1667.2C458,-1667.2 566,-1667.2 566,-1667.2 572,-1667.2 578,-1673.2 578,-1679.2 578,-1679.2 578,-2008 578,-2008 578,-2014 572,-2020 566,-2020 566,-2020 458,-2020 458,-2020 452,-2020 446,-2014 446,-2008 446,-2008 446,-1679.2 446,-1679.2 446,-1673.2 452,-1667.2 458,-1667.2"/>
<text text-anchor="middle" x="512" y="-2003.4" font-family="Times,serif" font-size="14.00">read-file</text>
</g>
<g id="clust6" class="cluster">
<title>cluster_s11</title>
<path fill="none" stroke="black" stroke-width="5" d="M404,-2496.8C404,-2496.8 620,-2496.8 620,-2496.8 626,-2496.8 632,-2502.8 632,-2508.8 632,-2508.8 632,-2837.6 632,-2837.6 632,-2843.6 626,-2849.6 620,-2849.6 620,-2849.6 404,-2849.6 404,-2849.6 398,-2849.6 392,-2843.6 392,-2837.6 392,-2837.6 392,-2508.8 392,-2508.8 392,-2502.8 398,-2496.8 404,-2496.8"/>
<text text-anchor="middle" x="512" y="-2833" font-family="Times,serif" font-size="14.00">read-stdin</text>
</g>
<g id="clust7" class="cluster">
<title>cluster_s27</title>
<path fill="none" stroke="black" stroke-width="5" d="M441,-837.6C441,-837.6 583,-837.6 583,-837.6 589,-837.6 595,-843.6 595,-849.6 595,-849.6 595,-1178.4 595,-1178.4 595,-1184.4 589,-1190.4 583,-1190.4 583,-1190.4 441,-1190.4 441,-1190.4 435,-1190.4 429,-1184.4 429,-1178.4 429,-1178.4 429,-849.6 429,-849.6 429,-843.6 435,-837.6 441,-837.6"/>
<text text-anchor="middle" x="512" y="-1173.8" font-family="Times,serif" font-size="14.00">remove-stop-words</text>
</g>
<g id="clust8" class="cluster">
<title>cluster_s23</title>
<path fill="none" stroke="black" stroke-width="5" d="M441,-1252.4C441,-1252.4 583,-1252.4 583,-1252.4 589,-1252.4 595,-1258.4 595,-1264.4 595,-1264.4 595,-1593.2 595,-1593.2 595,-1599.2 589,-1605.2 583,-1605.2 583,-1605.2 441,-1605.2 441,-1605.2 435,-1605.2 429,-1599.2 429,-1593.2 429,-1593.2 429,-1264.4 429,-1264.4 429,-1258.4 435,-1252.4 441,-1252.4"/>
<text text-anchor="middle" x="512" y="-1588.6" font-family="Times,serif" font-size="14.00">tokenize</text>
</g>
<!-- n2 -->
<g id="node1" class="node">
<title>n2</title>
<text text-anchor="start" x="35.78" y="-2764.6" font-family="Courier New" font-size="14.00">Description:</text>
<text text-anchor="start" x="150.59" y="-2764.6" font-family="Courier New" font-size="14.00">A mesh with 7 components</text>
</g>
<!-- n5 -->
<g id="node2" class="node">
<title>n5</title>
<ellipse fill="lightgrey" stroke="black" stroke-width="2.5" cx="512" cy="-694.8" rx="36" ry="36"/>
<text text-anchor="middle" x="512" y="-690.6" font-family="Courier New" font-size="14.00">in</text>
</g>
<!-- n4 -->
<g id="node4" class="node">
<title>n4</title>
<polygon fill="#9dddea" stroke="#9dddea" stroke-width="2.5" points="570.41,-622.8 453.59,-622.8 453.59,-550.8 570.41,-550.8 570.41,-622.8"/>
<text text-anchor="middle" x="512" y="-582.6" font-family="Courier New" font-size="14.00">count tokens</text>
</g>
<!-- n5&#45;&gt;n4 -->
<g id="edge1" class="edge">
<title>n5-&gt;n4</title>
<path fill="none" stroke="black" d="M512,-657.93C512,-657.93 512,-635.01 512,-635.01"/>
<polygon fill="black" stroke="black" points="515.5,-635.01 512,-625.01 508.5,-635.01 515.5,-635.01"/>
</g>
<!-- n6 -->
<g id="node3" class="node">
<title>n6</title>
<ellipse fill="lightgrey" stroke="black" stroke-width="2.5" cx="512" cy="-478.8" rx="36" ry="36"/>
<text text-anchor="middle" x="512" y="-474.6" font-family="Courier New" font-size="14.00">out</text>
</g>
<!-- n9 -->
<g id="node8" class="node">
<title>n9</title>
<ellipse fill="lightgrey" stroke="black" stroke-width="2.5" cx="512" cy="-280" rx="36" ry="36"/>
<text text-anchor="middle" x="512" y="-275.8" font-family="Courier New" font-size="14.00">in</text>
</g>
<!-- n6&#45;&gt;n9 -->
<g id="edge15" class="edge">
<title>n6-&gt;n9</title>
<path fill="none" stroke="#e437ea" stroke-width="2" d="M512,-441.87C512,-441.87 512,-329.76 512,-329.76"/>
<polygon fill="#e437ea" stroke="#e437ea" stroke-width="2" points="515.5,-329.76 512,-319.76 508.5,-329.76 515.5,-329.76"/>
</g>
<!-- n4&#45;&gt;n6 -->
<g id="edge2" class="edge">
<title>n4-&gt;n6</title>
<path fill="none" stroke="black" d="M512,-549.93C512,-549.93 512,-527.01 512,-527.01"/>
<polygon fill="black" stroke="black" points="515.5,-527.01 512,-517.01 508.5,-527.01 515.5,-527.01"/>
</g>
<!-- n17 -->
<g id="node5" class="node">
<title>n17</title>
<ellipse fill="lightgrey" stroke="black" stroke-width="2.5" cx="512" cy="-2354" rx="36" ry="36"/>
<text text-anchor="middle" x="512" y="-2349.8" font-family="Courier New" font-size="14.00">in</text>
</g>
<!-- n16 -->
<g id="node7" class="node">
<title>n16</title>
<polygon fill="#9dddea" stroke="#9dddea" stroke-width="2.5" points="574.61,-2282 449.39,-2282 449.39,-2210 574.61,-2210 574.61,-2282"/>
<text text-anchor="middle" x="512" y="-2241.8" font-family="Courier New" font-size="14.00">write to file</text>
</g>
<!-- n17&#45;&gt;n16 -->
<g id="edge3" class="edge">
<title>n17-&gt;n16</title>
<path fill="none" stroke="black" d="M512,-2317.13C512,-2317.13 512,-2294.21 512,-2294.21"/>
<polygon fill="black" stroke="black" points="515.5,-2294.21 512,-2284.21 508.5,-2294.21 515.5,-2294.21"/>
</g>
<!-- n18 -->
<g id="node6" class="node">
<title>n18</title>
<ellipse fill="lightgrey" stroke="black" stroke-width="2.5" cx="512" cy="-2138" rx="36" ry="36"/>
<text text-anchor="middle" x="512" y="-2133.8" font-family="Courier New" font-size="14.00">out</text>
</g>
<!-- n21 -->
<g id="node11" class="node">
<title>n21</title>
<ellipse fill="lightgrey" stroke="black" stroke-width="2.5" cx="512" cy="-1939.2" rx="36" ry="36"/>
<text text-anchor="middle" x="512" y="-1935" font-family="Courier New" font-size="14.00">in</text>
</g>
<!-- n18&#45;&gt;n21 -->
<g id="edge16" class="edge">
<title>n18-&gt;n21</title>
<path fill="none" stroke="#e437ea" stroke-width="2" d="M512,-2101.07C512,-2101.07 512,-1988.96 512,-1988.96"/>
<polygon fill="#e437ea" stroke="#e437ea" stroke-width="2" points="515.5,-1988.96 512,-1978.96 508.5,-1988.96 515.5,-1988.96"/>
</g>
<!-- n16&#45;&gt;n18 -->
<g id="edge4" class="edge">
<title>n16-&gt;n18</title>
<path fill="none" stroke="black" d="M512,-2209.13C512,-2209.13 512,-2186.21 512,-2186.21"/>
<polygon fill="black" stroke="black" points="515.5,-2186.21 512,-2176.21 508.5,-2186.21 515.5,-2186.21"/>
</g>
<!-- n8 -->
<g id="node10" class="node">
<title>n8</title>
<polygon fill="#9dddea" stroke="#9dddea" stroke-width="2.5" points="574.61,-208 449.39,-208 449.39,-136 574.61,-136 574.61,-208"/>
<text text-anchor="middle" x="512" y="-167.8" font-family="Courier New" font-size="14.00">write to file</text>
</g>
<!-- n9&#45;&gt;n8 -->
<g id="edge5" class="edge">
<title>n9-&gt;n8</title>
<path fill="none" stroke="black" d="M512,-243.13C512,-243.13 512,-220.21 512,-220.21"/>
<polygon fill="black" stroke="black" points="515.5,-220.21 512,-210.21 508.5,-220.21 515.5,-220.21"/>
</g>
<!-- n10 -->
<g id="node9" class="node">
<title>n10</title>
<ellipse fill="lightgrey" stroke="black" stroke-width="2.5" cx="512" cy="-64" rx="36" ry="36"/>
<text text-anchor="middle" x="512" y="-59.8" font-family="Courier New" font-size="14.00">out</text>
</g>
<!-- n8&#45;&gt;n10 -->
<g id="edge6" class="edge">
<title>n8-&gt;n10</title>
<path fill="none" stroke="black" d="M512,-135.13C512,-135.13 512,-112.21 512,-112.21"/>
<polygon fill="black" stroke="black" points="515.5,-112.21 512,-102.21 508.5,-112.21 515.5,-112.21"/>
</g>
<!-- n20 -->
<g id="node13" class="node">
<title>n20</title>
<polygon fill="#9dddea" stroke="#9dddea" stroke-width="2.5" points="557.81,-1867.2 466.19,-1867.2 466.19,-1795.2 557.81,-1795.2 557.81,-1867.2"/>
<text text-anchor="middle" x="512" y="-1827" font-family="Courier New" font-size="14.00">read file</text>
</g>
<!-- n21&#45;&gt;n20 -->
<g id="edge7" class="edge">
<title>n21-&gt;n20</title>
<path fill="none" stroke="black" d="M512,-1902.33C512,-1902.33 512,-1879.41 512,-1879.41"/>
<polygon fill="black" stroke="black" points="515.5,-1879.41 512,-1869.41 508.5,-1879.41 515.5,-1879.41"/>
</g>
<!-- n22 -->
<g id="node12" class="node">
<title>n22</title>
<ellipse fill="lightgrey" stroke="black" stroke-width="2.5" cx="512" cy="-1723.2" rx="36" ry="36"/>
<text text-anchor="middle" x="512" y="-1719" font-family="Courier New" font-size="14.00">out</text>
</g>
<!-- n25 -->
<g id="node20" class="node">
<title>n25</title>
<ellipse fill="lightgrey" stroke="black" stroke-width="2.5" cx="512" cy="-1524.4" rx="36" ry="36"/>
<text text-anchor="middle" x="512" y="-1520.2" font-family="Courier New" font-size="14.00">in</text>
</g>
<!-- n22&#45;&gt;n25 -->
<g id="edge17" class="edge">
<title>n22-&gt;n25</title>
<path fill="none" stroke="#e437ea" stroke-width="2" d="M512,-1686.27C512,-1686.27 512,-1574.16 512,-1574.16"/>
<polygon fill="#e437ea" stroke="#e437ea" stroke-width="2" points="515.5,-1574.16 512,-1564.16 508.5,-1574.16 515.5,-1574.16"/>
</g>
<!-- n20&#45;&gt;n22 -->
<g id="edge8" class="edge">
<title>n20-&gt;n22</title>
<path fill="none" stroke="black" d="M512,-1794.33C512,-1794.33 512,-1771.41 512,-1771.41"/>
<polygon fill="black" stroke="black" points="515.5,-1771.41 512,-1761.41 508.5,-1771.41 515.5,-1771.41"/>
</g>
<!-- n13 -->
<g id="node14" class="node">
<title>n13</title>
<ellipse fill="lightgrey" stroke="black" stroke-width="2.5" cx="512" cy="-2768.8" rx="36" ry="36"/>
<text text-anchor="middle" x="512" y="-2764.6" font-family="Courier New" font-size="14.00">in</text>
</g>
<!-- n12 -->
<g id="node16" class="node">
<title>n12</title>
<polygon fill="#9dddea" stroke="#9dddea" stroke-width="2.5" points="612.42,-2696.8 411.58,-2696.8 411.58,-2624.8 612.42,-2624.8 612.42,-2696.8"/>
<text text-anchor="middle" x="512" y="-2656.6" font-family="Courier New" font-size="14.00">read a line from stdin</text>
</g>
<!-- n13&#45;&gt;n12 -->
<g id="edge9" class="edge">
<title>n13-&gt;n12</title>
<path fill="none" stroke="black" d="M512,-2731.93C512,-2731.93 512,-2709.01 512,-2709.01"/>
<polygon fill="black" stroke="black" points="515.5,-2709.01 512,-2699.01 508.5,-2709.01 515.5,-2709.01"/>
</g>
<!-- n14 -->
<g id="node15" class="node">
<title>n14</title>
<ellipse fill="lightgrey" stroke="black" stroke-width="2.5" cx="512" cy="-2552.8" rx="36" ry="36"/>
<text text-anchor="middle" x="512" y="-2548.6" font-family="Courier New" font-size="14.00">out</text>
</g>
<!-- n14&#45;&gt;n17 -->
<g id="edge18" class="edge">
<title>n14-&gt;n17</title>
<path fill="none" stroke="#e437ea" stroke-width="2" d="M512,-2515.87C512,-2515.87 512,-2403.76 512,-2403.76"/>
<polygon fill="#e437ea" stroke="#e437ea" stroke-width="2" points="515.5,-2403.76 512,-2393.76 508.5,-2403.76 515.5,-2403.76"/>
</g>
<!-- n12&#45;&gt;n14 -->
<g id="edge10" class="edge">
<title>n12-&gt;n14</title>
<path fill="none" stroke="black" d="M512,-2623.93C512,-2623.93 512,-2601.01 512,-2601.01"/>
<polygon fill="black" stroke="black" points="515.5,-2601.01 512,-2591.01 508.5,-2601.01 515.5,-2601.01"/>
</g>
<!-- n29 -->
<g id="node17" class="node">
<title>n29</title>
<ellipse fill="lightgrey" stroke="black" stroke-width="2.5" cx="512" cy="-1109.6" rx="36" ry="36"/>
<text text-anchor="middle" x="512" y="-1105.4" font-family="Courier New" font-size="14.00">in</text>
</g>
<!-- n28 -->
<g id="node19" class="node">
<title>n28</title>
<polygon fill="#9dddea" stroke="#9dddea" stroke-width="2.5" points="574.61,-1037.6 449.39,-1037.6 449.39,-965.6 574.61,-965.6 574.61,-1037.6"/>
<text text-anchor="middle" x="512" y="-997.4" font-family="Courier New" font-size="14.00">filter-tokens</text>
</g>
<!-- n29&#45;&gt;n28 -->
<g id="edge11" class="edge">
<title>n29-&gt;n28</title>
<path fill="none" stroke="black" d="M512,-1072.73C512,-1072.73 512,-1049.81 512,-1049.81"/>
<polygon fill="black" stroke="black" points="515.5,-1049.81 512,-1039.81 508.5,-1049.81 515.5,-1049.81"/>
</g>
<!-- n30 -->
<g id="node18" class="node">
<title>n30</title>
<ellipse fill="lightgrey" stroke="black" stroke-width="2.5" cx="512" cy="-893.6" rx="36" ry="36"/>
<text text-anchor="middle" x="512" y="-889.4" font-family="Courier New" font-size="14.00">out</text>
</g>
<!-- n30&#45;&gt;n5 -->
<g id="edge19" class="edge">
<title>n30-&gt;n5</title>
<path fill="none" stroke="#e437ea" stroke-width="2" d="M512,-856.67C512,-856.67 512,-744.56 512,-744.56"/>
<polygon fill="#e437ea" stroke="#e437ea" stroke-width="2" points="515.5,-744.56 512,-734.56 508.5,-744.56 515.5,-744.56"/>
</g>
<!-- n28&#45;&gt;n30 -->
<g id="edge12" class="edge">
<title>n28-&gt;n30</title>
<path fill="none" stroke="black" d="M512,-964.73C512,-964.73 512,-941.81 512,-941.81"/>
<polygon fill="black" stroke="black" points="515.5,-941.81 512,-931.81 508.5,-941.81 515.5,-941.81"/>
</g>
<!-- n24 -->
<g id="node22" class="node">
<title>n24</title>
<polygon fill="#9dddea" stroke="#9dddea" stroke-width="2.5" points="574.61,-1452.4 449.39,-1452.4 449.39,-1380.4 574.61,-1380.4 574.61,-1452.4"/>
<text text-anchor="middle" x="512" y="-1412.2" font-family="Courier New" font-size="14.00">tokenize text</text>
</g>
<!-- n25&#45;&gt;n24 -->
<g id="edge13" class="edge">
<title>n25-&gt;n24</title>
<path fill="none" stroke="black" d="M512,-1487.53C512,-1487.53 512,-1464.61 512,-1464.61"/>
<polygon fill="black" stroke="black" points="515.5,-1464.61 512,-1454.61 508.5,-1464.61 515.5,-1464.61"/>
</g>
<!-- n26 -->
<g id="node21" class="node">
<title>n26</title>
<ellipse fill="lightgrey" stroke="black" stroke-width="2.5" cx="512" cy="-1308.4" rx="36" ry="36"/>
<text text-anchor="middle" x="512" y="-1304.2" font-family="Courier New" font-size="14.00">out</text>
</g>
<!-- n26&#45;&gt;n29 -->
<g id="edge20" class="edge">
<title>n26-&gt;n29</title>
<path fill="none" stroke="#e437ea" stroke-width="2" d="M512,-1271.47C512,-1271.47 512,-1159.36 512,-1159.36"/>
<polygon fill="#e437ea" stroke="#e437ea" stroke-width="2" points="515.5,-1159.36 512,-1149.36 508.5,-1159.36 515.5,-1159.36"/>
</g>
<!-- n24&#45;&gt;n26 -->
<g id="edge14" class="edge">
<title>n24-&gt;n26</title>
<path fill="none" stroke="black" d="M512,-1379.53C512,-1379.53 512,-1356.61 512,-1356.61"/>
<polygon fill="black" stroke="black" points="515.5,-1356.61 512,-1346.61 508.5,-1356.61 515.5,-1356.61"/>
</g>
</g>
</svg>