<svg width="630pt" height="630pt" viewBox="0.00 0.00 630.00 629.80" xmlns="http://www.w3.org/2000/svg" xmlns:xlink="http://www.w3.org/1999/xlink">
<g id="graph0" class="graph" transform="scale(1 1) rotate(0) translate(4 625.8)">
<polygon fill="white" stroke="none" points="-4,4 -4,-625.8 626,-625.8 626,4 -4,4"/>
<g id="clust1" class="cluster">
<title>cluster_s1</title>
<polygon fill="#e2c6fc" stroke="black" stroke-dasharray="5,2" points="8,-500.6 8,-565.4 380,-565.4 380,-500.6 8,-500.6"/>
</g>
<g id="clust2" class="cluster">
<title>cluster_s3</title>
<path fill="none" stroke="black" stroke-width="5" d="M404,-8C404,-8 602,-8 602,-8 608,-8 614,-14 614,-20 614,-20 614,-601.8 614,-601.8 614,-607.8 608,-613.8 602,-613.8 602,-613.8 404,-613.8 404,-613.8 398,-613.8 392,-607.8 392,-601.8 392,-601.8 392,-20 392,-20 392,-14 398,-8 404,-8"/>
<text text-anchor="middle" x="503" y="-597.2" font-family="Times,serif" font-size="14.00">fibonacci number generator</text>
</g>
<!-- n2 -->
<g id="node1" class="node">
<title>n2</title>
<text text-anchor="start" x="35.78" y="-528.8" font-family="Courier New" font-size="14.00">Description:</text>
<text text-anchor="start" x="150.59" y="-528.8" font-family="Courier New" font-size="14.00">A mesh with 1 components</text>
</g>
<!-- n5 -->
<g id="node2" class="node">
<title>n5</title>
<ellipse fill="lightgrey" stroke="black" stroke-width="2.5" cx="475" cy="-533" rx="36" ry="36"/>
<text text-anchor="middle" x="475" y="-528.8" font-family="Courier New" font-size="14.00">i_cur</text>
</g>
<!-- n4 -->
<g id="node6" class="node">
<title>n4</title>
<polygon fill="#9dddea" stroke="#9dddea" stroke-width="2.5" points="539,-461 467,-461 467,-389 539,-389 539,-461"/>
<text text-anchor="middle" x="503" y="-420.8" font-family="Courier New" font-size="14.00">ğ‘“</text>
</g>
<!-- n5&#45;&gt;n4 -->
<g id="edge1" class="edge">
<title>n5-&gt;n4</title>
<path fill="none" stroke="black" d="M489,-498.83C489,-498.83 489,-473.45 489,-473.45"/>
<polygon fill="black" stroke="black" points="492.5,-473.45 489,-463.45 485.5,-473.45 492.5,-473.45"/>
</g>
<!-- n6 -->
<g id="node3" class="node">
<title>n6</title>
<ellipse fill="lightgrey" stroke="black" stroke-width="2.5" cx="517" cy="-64" rx="36" ry="36"/>
<text text-anchor="middle" x="517" y="-59.8" font-family="Courier New" font-size="14.00">i_prev</text>
</g>
<!-- n6&#45;&gt;n4 -->
<g id="edge2" class="edge">
<title>n6-&gt;n4</title>
<path fill="none" stroke="black" d="M503,-97.96C503,-97.96 503,-376.67 503,-376.67"/>
<polygon fill="black" stroke="black" points="499.5,-376.67 503,-386.67 506.5,-376.67 499.5,-376.67"/>
</g>
<!-- n7 -->
<g id="node4" class="node">
<title>n7</title>
<ellipse fill="lightgrey" stroke="black" stroke-width="2.5" cx="448" cy="-209" rx="36" ry="36"/>
<text text-anchor="middle" x="448" y="-204.8" font-family="Courier New" font-size="14.00">o_cur</text>
</g>
<!-- n7&#45;&gt;n5 -->
<g id="edge5" class="edge">
<title>n7-&gt;n5</title>
<path fill="none" stroke="#e437ea" stroke-width="2" d="M453,-245.54C453,-245.54 453,-490.24 453,-490.24"/>
<polygon fill="#e437ea" stroke="#e437ea" stroke-width="2" points="449.5,-490.24 453,-500.24 456.5,-490.24 449.5,-490.24"/>
</g>
<!-- n8 -->
<g id="node5" class="node">
<title>n8</title>
<ellipse fill="lightgrey" stroke="black" stroke-width="2.5" cx="558" cy="-317" rx="36" ry="36"/>
<text text-anchor="middle" x="558" y="-312.8" font-family="Courier New" font-size="14.00">o_prev</text>
</g>
<!-- n8&#45;&gt;n6 -->
<g id="edge6" class="edge">
<title>n8-&gt;n6</title>
<path fill="none" stroke="#e437ea" stroke-width="2" d="M537.5,-286.23C537.5,-286.23 537.5,-107.58 537.5,-107.58"/>
<polygon fill="#e437ea" stroke="#e437ea" stroke-width="2" points="541,-107.58 537.5,-97.58 534,-107.58 541,-107.58"/>
</g>
<!-- n4&#45;&gt;n7 -->
<g id="edge3" class="edge">
<title>n4-&gt;n7</title>
<path fill="none" stroke="black" d="M475.5,-388.36C475.5,-388.36 475.5,-245.2 475.5,-245.2"/>
<polygon fill="black" stroke="black" points="479,-245.2 475.5,-235.2 472,-245.2 479,-245.2"/>
</g>
<!-- n4&#45;&gt;n8 -->
<g id="edge4" class="edge">
<title>n4-&gt;n8</title>
<path fill="none" stroke="black" d="M530.5,-388.13C530.5,-388.13 530.5,-353 530.5,-353"/>
<polygon fill="black" stroke="black" points="534,-353 530.5,-343 527,-353 534,-353"/>
</g>
</g>
</svg>